<?xml version="1.0" encoding="utf-8"?>
<!-- Generator: Adobe Illustrator 15.1.0, SVG Export Plug-In . SVG Version: 6.00 Build 0)  -->
<!DOCTYPE svg PUBLIC "-//W3C//DTD SVG 1.1//EN" "http://www.w3.org/Graphics/SVG/1.1/DTD/svg11.dtd">
<svg version="1.1" id="Layer_1" xmlns="http://www.w3.org/2000/svg" xmlns:xlink="http://www.w3.org/1999/xlink" x="0px" y="0px"
	 width="234.535px" height="71.91px" viewBox="0 38.576 234.535 71.91" enable-background="new 0 38.576 234.535 71.91"
	 xml:space="preserve">
<g>
	<g>
		<path fill="#F26822" d="M109.096,61.949c-2.862,3.646-6.858,5.47-11.989,5.47c-4.813,0-8.607-1.601-11.363-4.802
			c-2.332-2.692-3.487-5.947-3.487-9.784c0-4.145,1.441-7.568,4.335-10.282c2.819-2.65,6.317-3.975,10.494-3.975
			c5.226,0,9.233,1.929,12.021,5.788l-2.162,1.664c-2.428-3.148-5.703-4.728-9.826-4.728c-2.142,0-4.145,0.509-6,1.526
			c-1.908,1.028-3.381,2.449-4.42,4.24c-1.039,1.792-1.558,3.795-1.558,6.01c0,3.434,1.166,6.254,3.508,8.458
			c2.3,2.173,5.184,3.265,8.628,3.265c3.848,0,7.07-1.495,9.657-4.495L109.096,61.949z"/>
		<path fill="#F26822" d="M134.175,66.73h-2.597v-3.488c-2.205,2.671-4.919,4.018-8.152,4.018c-2.936,0-5.406-1.06-7.419-3.169
			c-1.993-2.078-2.979-4.6-2.979-7.558c0-2.926,1.018-5.427,3.053-7.505c2.035-2.078,4.505-3.117,7.43-3.117
			c3.35,0,6.032,1.421,8.077,4.251v-3.731h2.598V66.73H134.175z M131.748,56.691c0-2.321-0.763-4.271-2.278-5.862
			c-1.516-1.59-3.436-2.385-5.746-2.385c-3.105,0-5.416,1.357-6.943,4.081c-0.731,1.293-1.102,2.661-1.102,4.102
			s0.371,2.809,1.102,4.102c0.731,1.293,1.717,2.311,2.947,3.032c1.23,0.731,2.565,1.092,3.975,1.092
			c1.432,0,2.777-0.36,4.061-1.081s2.258-1.696,2.947-2.926C131.398,59.617,131.748,58.229,131.748,56.691z"/>
		<path fill="#F26822" d="M170.225,66.73h-2.691V55.653c0-1.707-0.074-2.894-0.223-3.562c-0.275-1.293-0.881-2.258-1.834-2.894
			c-0.764-0.498-1.664-0.742-2.703-0.742c-1.293,0-2.459,0.371-3.508,1.124c-1.05,0.752-1.802,1.749-2.29,2.979
			c-0.477,1.24-0.721,3.307-0.721,6.222v7.939h-2.607V56.331c0-1.897-0.063-3.19-0.19-3.879c-0.265-1.463-0.88-2.544-1.866-3.223
			c-0.763-0.519-1.664-0.784-2.703-0.784c-1.261,0-2.416,0.381-3.477,1.134c-1.006,0.731-1.76,1.696-2.236,2.894
			c-0.509,1.229-0.764,3.117-0.764,5.65v8.597h-2.617V46.42h2.617v3.508c1.898-2.692,4.219-4.028,6.976-4.028
			c2.077,0,3.741,0.7,4.972,2.109c0.562,0.646,1.049,1.569,1.463,2.767c1.78-3.244,4.281-4.876,7.494-4.876
			c2.979,0,5.023,1.346,6.137,4.028c0.52,1.272,0.785,3.169,0.785,5.713V66.73H170.225z"/>
		<path fill="#F26822" d="M196.641,56.522c0,2.958-0.996,5.48-2.979,7.558c-2.014,2.12-4.484,3.169-7.42,3.169
			c-3.223,0-5.926-1.335-8.131-4.017V74.15h-2.617V46.42h2.617v3.731c2.068-2.841,4.75-4.25,8.057-4.25
			c2.926,0,5.395,1.039,7.43,3.116C195.623,51.095,196.641,53.596,196.641,56.522z M193.99,56.617c0-1.441-0.359-2.809-1.08-4.102
			c-0.721-1.293-1.697-2.29-2.938-3.01c-1.24-0.71-2.576-1.071-4.027-1.071c-2.311,0-4.219,0.795-5.746,2.385
			c-1.516,1.59-2.277,3.54-2.277,5.862c0,3.233,1.334,5.586,4.006,7.081c1.283,0.721,2.629,1.081,4.061,1.081
			c1.441,0,2.777-0.371,4.018-1.113c1.207-0.731,2.172-1.749,2.893-3.032C193.619,59.405,193.99,58.038,193.99,56.617z"/>
		<path fill="#F26822" d="M218.73,56.395c0,2.29-0.223,4.103-0.656,5.449c-0.594,1.833-1.686,3.233-3.266,4.198
			c-1.314,0.805-2.967,1.208-4.949,1.208c-3.891,0-6.529-1.526-7.918-4.568c-0.658-1.431-0.986-3.593-0.986-6.477V46.42h2.65v9.476
			c0,2.343,0.127,3.933,0.371,4.77c0.381,1.293,1.133,2.3,2.236,3.021c1.039,0.668,2.258,1.007,3.646,1.007
			c1.355,0,2.533-0.318,3.551-0.954c1.08-0.679,1.822-1.643,2.236-2.873c0.266-0.785,0.393-2.438,0.393-4.982V46.41h2.691V56.395
			L218.73,56.395z"/>
		<path fill="#F26822" d="M234.535,61.271c0,1.717-0.594,3.148-1.77,4.282c-1.188,1.134-2.639,1.696-4.367,1.696
			c-2.502,0-4.494-0.954-5.988-2.873l1.643-1.866c1.324,1.495,2.734,2.237,4.229,2.237c0.986,0,1.855-0.318,2.619-0.954
			c0.762-0.636,1.145-1.441,1.145-2.406c0-0.975-0.457-1.844-1.357-2.586c-0.445-0.371-1.324-0.89-2.65-1.568
			c-1.504-0.774-2.596-1.537-3.295-2.3c-0.945-1.018-1.422-2.237-1.422-3.657c0-1.579,0.531-2.873,1.602-3.869
			c1.059-1.007,2.385-1.505,3.965-1.505c1.865,0,3.74,0.912,5.639,2.745l-1.676,1.739c-1.389-1.346-2.744-2.014-4.08-2.014
			c-0.807,0-1.527,0.265-2.141,0.795c-0.627,0.53-0.934,1.198-0.934,1.982c0,1.335,1.293,2.671,3.879,4.007
			c1.59,0.827,2.746,1.611,3.467,2.353C234.037,58.557,234.535,59.818,234.535,61.271z"/>
	</g>
	<g>
		<path fill="#4D575E" d="M132.034,90.506c0,1.686-0.636,3.105-1.908,4.282c-1.229,1.134-2.691,1.706-4.398,1.706
			c-2.756,0-4.992-1.568-6.71-4.695l1.887-1.135c1.335,2.438,2.872,3.658,4.622,3.658c1.653,0,2.852-0.637,3.604-1.92
			c0.34-0.582,0.52-1.197,0.52-1.854c0-0.741-0.254-1.474-0.752-2.194c-0.658-0.933-1.877-2.066-3.668-3.402
			c-1.824-1.346-3.031-2.417-3.615-3.201c-0.784-1.061-1.176-2.194-1.176-3.402c0-2.057,0.89-3.563,2.66-4.526
			c0.838-0.456,1.749-0.679,2.734-0.679c2.12,0,4.061,1.219,5.83,3.646l-1.813,1.378c-0.678-0.89-1.25-1.526-1.728-1.897
			c-0.71-0.562-1.495-0.837-2.343-0.837c-0.858,0-1.58,0.255-2.152,0.773c-0.604,0.52-0.911,1.208-0.911,2.057
			c0,0.996,0.466,1.961,1.41,2.884c0.275,0.264,1.229,1.006,2.872,2.225c1.516,1.125,2.64,2.131,3.393,3.021
			C131.483,87.729,132.034,89.106,132.034,90.506z"/>
		<path fill="#4D575E" d="M150.319,87.559c0,1.855-0.18,3.328-0.529,4.41c-0.488,1.483-1.368,2.617-2.641,3.402
			c-1.07,0.657-2.406,0.986-4.006,0.986c-3.148,0-5.29-1.23-6.402-3.7c-0.53-1.155-0.807-2.904-0.807-5.247v-7.918h2.142v7.664
			c0,1.887,0.096,3.18,0.297,3.869c0.308,1.049,0.911,1.865,1.813,2.448c0.849,0.54,1.823,0.816,2.958,0.816
			c1.092,0,2.057-0.255,2.872-0.774c0.869-0.551,1.474-1.324,1.813-2.321c0.211-0.636,0.317-1.981,0.317-4.028v-7.663h2.173V87.559
			L150.319,87.559z"/>
		<path fill="#4D575E" d="M171.975,87.665c0,2.396-0.807,4.441-2.416,6.116c-1.633,1.717-3.637,2.564-6.012,2.564
			c-2.607,0-4.8-1.08-6.582-3.243v6.868h-2.12V79.492h2.12v3.021c1.674-2.301,3.847-3.445,6.519-3.445
			c2.363,0,4.367,0.838,6.01,2.522C171.158,83.276,171.975,85.301,171.975,87.665z M169.834,87.75c0-1.166-0.297-2.269-0.881-3.318
			c-0.582-1.049-1.377-1.855-2.375-2.438c-0.996-0.584-2.088-0.869-3.264-0.869c-1.865,0-3.424,0.646-4.654,1.929
			c-1.229,1.282-1.844,2.872-1.844,4.749c0,2.618,1.081,4.525,3.244,5.724c1.039,0.583,2.131,0.88,3.285,0.88
			c1.166,0,2.248-0.297,3.254-0.9c0.977-0.594,1.76-1.41,2.344-2.459C169.537,89.996,169.834,88.904,169.834,87.75z"/>
		<path fill="#4D575E" d="M192.898,87.665c0,2.396-0.805,4.441-2.416,6.116c-1.633,1.717-3.637,2.564-6.01,2.564
			c-2.609,0-4.803-1.08-6.584-3.243v6.868h-2.119V79.492h2.119v3.021c1.676-2.301,3.848-3.445,6.52-3.445
			c2.363,0,4.367,0.838,6.021,2.522C192.082,83.276,192.898,85.301,192.898,87.665z M190.758,87.75c0-1.166-0.297-2.269-0.869-3.318
			c-0.584-1.049-1.379-1.855-2.375-2.438c-0.996-0.584-2.088-0.869-3.264-0.869c-1.867,0-3.424,0.646-4.654,1.929
			s-1.844,2.872-1.844,4.749c0,2.618,1.08,4.525,3.242,5.724c1.039,0.583,2.131,0.88,3.287,0.88c1.166,0,2.246-0.297,3.254-0.9
			c0.975-0.594,1.76-1.41,2.342-2.459C190.461,89.996,190.758,88.904,190.758,87.75z"/>
		<path fill="#4D575E" d="M213.008,87.76c0,2.417-0.816,4.453-2.461,6.117c-1.643,1.652-3.666,2.48-6.094,2.48
			c-2.418,0-4.453-0.828-6.096-2.48c-1.643-1.654-2.469-3.689-2.469-6.117c0-2.279,0.752-4.25,2.268-5.925
			c1.664-1.845,3.764-2.767,6.297-2.767c2.523,0,4.621,0.912,6.285,2.745C212.254,83.499,213.008,85.471,213.008,87.76z
			 M210.844,87.803c0-1.813-0.613-3.371-1.844-4.686c-1.229-1.314-2.746-1.971-4.547-1.971c-1.803,0-3.318,0.656-4.547,1.971
			c-1.23,1.314-1.846,2.873-1.846,4.686c0,1.166,0.275,2.258,0.828,3.275c0.572,1.049,1.346,1.844,2.332,2.416
			c0.984,0.563,2.055,0.849,3.221,0.849c2.492,0,4.336-1.071,5.533-3.212C210.559,90.092,210.844,88.99,210.844,87.803z"/>
		<path fill="#4D575E" d="M224.264,79.63l-1.102,1.802c-0.445-0.19-0.816-0.285-1.113-0.285c-1.686,0-2.861,1.187-3.529,3.561
			c-0.266,0.934-0.393,2.83-0.393,5.672v5.554h-2.174v-16.44h2.174v2.417c1.271-1.897,2.703-2.841,4.262-2.841
			C222.971,79.068,223.596,79.259,224.264,79.63z"/>
		<path fill="#4D575E" d="M233.221,81.326h-3.35v14.606h-2.141V81.326h-2.883v-1.823h2.883v-6.106h2.141v6.106h3.35V81.326z"/>
	</g>
	<g>
		<path fill="#4D575E" d="M24.094,38.905c0,0-23.956,4.325-22.419,28.408c0.985,15.486,15.295,31.333,40.417,19.186
			c0,0,6.159,14.851,14.056,13.462c3.063-0.53,13.738-1.018,13.738-1.018l2.544-7.41V38.884L24.094,38.905z"/>
		<path fill="none" stroke="#FFFFFF" stroke-width="1.0059" stroke-miterlimit="10" d="M42.443,86.499
			c-2.82,1.59-5.491,2.968-9.72,4.091"/>
		<path fill="#4D575E" d="M52.704,65.256c0,14.554-11.628,25.069-26.352,25.588C11.088,91.385,0.096,80.955,0,65.256
			c-0.085-14.554,11.797-26.352,26.352-26.352C40.906,38.905,52.704,50.703,52.704,65.256z"/>
		<g>
			<path fill="#FFFFFF" d="M46.587,49.918l-6.127,5.841c-4.155-4.42-8.84-6.625-14.045-6.625c-4.41,0-8.12,1.495-11.109,4.494
				c-3,3-4.494,6.71-4.494,11.13c0,6.339,2.554,10.939,7.653,13.78c2.428,1.356,5.141,2.035,8.109,2.035
				c2.809,0,5.353-0.583,7.643-1.759c1.918-1.008,3.996-2.629,6.243-4.866l5.936,6.19c-3.169,3.085-6.18,5.289-9.031,6.625
				c-3.169,1.463-6.816,2.184-10.939,2.184c-7.145,0-12.996-2.247-17.543-6.752c-4.548-4.494-6.827-10.324-6.827-17.469
				c0-9.371,4.007-16.313,12.031-20.808c3.848-2.162,8.013-3.254,12.465-3.254C34.62,40.675,41.298,43.76,46.587,49.918z"/>
		</g>
		<g>
			<path fill="#FFFFFF" d="M72.504,94.248c0,4.939-1.717,8.903-5.141,11.914c-3.275,2.883-7.42,4.324-12.423,4.324
				c-7.992,0-14.829-2.819-22.122-19.727l9.635-4.261c0.138,0.296,1.018,2.278,3.424,6.402c2.788,4.78,5.788,7.261,9.275,7.261
				c1.654,0,3.138-0.487,4.431-1.452c1.452-1.038,2.173-2.374,2.173-3.996c0-1.696-0.954-3.562-2.883-5.607
				c-0.752-0.806-2.385-2.247-4.897-4.304c-4.696-3.837-7.876-6.721-9.562-8.639c-3.477-3.922-5.215-7.717-5.215-11.406
				c0-4.198,1.601-7.696,4.791-10.462c3.042-2.671,6.688-4.007,10.95-4.007c5.745,0,11.257,3.074,16.557,9.233l-8.066,7.134
				c-2.82-3.975-5.692-5.958-8.628-5.958c-1.187,0-2.269,0.318-3.222,0.933c-1.082,0.731-1.633,1.664-1.633,2.809
				c0,0.964,0.329,1.876,0.976,2.734c0.912,1.198,3.562,3.657,7.971,7.388c4.229,3.563,6.741,5.756,7.547,6.584
				C70.479,85.291,72.504,89.646,72.504,94.248z"/>
		</g>
	</g>
</g>
</svg>
